<?xml version="1.0" encoding="utf-8"?>
<!-- Generator: Adobe Illustrator 16.0.0, SVG Export Plug-In . SVG Version: 6.00 Build 0)  -->
<!DOCTYPE svg PUBLIC "-//W3C//DTD SVG 1.1//EN" "http://www.w3.org/Graphics/SVG/1.1/DTD/svg11.dtd">
<svg version="1.1" xmlns="http://www.w3.org/2000/svg" xmlns:xlink="http://www.w3.org/1999/xlink" x="0px" y="0px" width="50px"
	 height="50px" viewBox="0 0 50 50" enable-background="new 0 0 50 50" xml:space="preserve">
<g id="explore">
</g>
<g id="rate_ultimte">
</g>
<g id="Ebene_41">
</g>
<g id="rate">
	<g id="sound_3_32_">
	</g>
	<g id="sound_3_31_">
	</g>
	<g id="sound_3_30_">
	</g>
	<g id="sound_3_29_">
	</g>
	<g id="sound_3_28_">
	</g>
	<g id="sound_3_27_">
	</g>
	<g id="sound_3_26_">
	</g>
	<g id="sound_3_25_">
	</g>
	<g id="sound_3_24_">
	</g>
	<g id="sound_3_23_">
	</g>
	<g id="sound_3_22_">
	</g>
	<g id="sound_3_21_">
	</g>
	<g id="sound_3_20_">
	</g>
	<g id="sound_3_19_">
	</g>
	<g id="sound_3_18_">
	</g>
	<g id="sound_3_17_">
	</g>
	<g id="sound_3_16_">
	</g>
	<g id="sound_3_15_">
	</g>
	<g id="sound_3_14_">
	</g>
	<g id="sound_3_13_">
	</g>
	<g id="sound_3_12_">
	</g>
	<g id="sound_3_11_">
	</g>
	<g id="sound_3_10_">
	</g>
	<g id="sound_3_9_">
	</g>
	<g id="sound_3_8_">
	</g>
	<g id="sound_3_7_">
	</g>
	<g id="sound_3_6_">
	</g>
	<g id="sound_3_5_">
	</g>
	<g id="sound_3_4_">
	</g>
	<g id="sound_3_3_">
	</g>
	<g id="sound_3_2_">
	</g>
	<g id="sound_3_1_">
	</g>
	<g id="sound_3">
	</g>
</g>
<g id="carpet_plot">
</g>
<g id="Ebene_37">
</g>
<g id="legende" display="none">
</g>
<g id="Ebene_39">
</g>
<g id="UI_design_light">
</g>
<g id="UI_design">
</g>
<g id="UI_overview">
</g>
<g id="UI_login">
</g>
<g id="UI_project_edit">
</g>
<g id="notes" display="none">
</g>
<g id="icons">
</g>
<g id="colors">
	<g>
		<path fill="#FFFFFF" d="M27.208,38.683c-0.576,0.609-1.314,0.915-2.209,0.915c-0.896,0-1.632-0.306-2.207-0.915
			c-0.578-0.608-0.865-1.327-0.865-2.159v-8.452h-8.452c-0.898,0-1.632-0.303-2.207-0.911c-0.578-0.608-0.865-1.331-0.865-2.16
			c0-0.898,0.287-1.633,0.865-2.212c0.575-0.573,1.309-0.863,2.207-0.863l8.452-0.001v-8.446c0-0.9,0.287-1.634,0.864-2.211
			c0.575-0.574,1.313-0.864,2.207-0.864c0.895,0,1.634,0.29,2.209,0.864c0.577,0.577,0.865,1.312,0.865,2.21v8.448h8.45
			c0.896,0,1.633,0.29,2.21,0.863c0.575,0.579,0.863,1.313,0.863,2.212c0,0.829-0.289,1.552-0.863,2.16
			c-0.578,0.608-1.315,0.911-2.21,0.911h-8.449v8.452C28.073,37.355,27.784,38.074,27.208,38.683z"/>
	</g>
</g>
</svg>
