<?xml version="1.0" encoding="utf-8"?>
<!-- Generator: Adobe Illustrator 16.0.0, SVG Export Plug-In . SVG Version: 6.00 Build 0)  -->
<!DOCTYPE svg PUBLIC "-//W3C//DTD SVG 1.1//EN" "http://www.w3.org/Graphics/SVG/1.1/DTD/svg11.dtd">
<svg version="1.1" xmlns="http://www.w3.org/2000/svg" xmlns:xlink="http://www.w3.org/1999/xlink" x="0px" y="0px" width="50px"
	 height="50px" viewBox="0 0 50 50" enable-background="new 0 0 50 50" xml:space="preserve">
<g id="explore">
</g>
<g id="rate_ultimte">
</g>
<g id="Ebene_41">
</g>
<g id="rate">
	<g id="sound_3_32_">
	</g>
	<g id="sound_3_31_">
	</g>
	<g id="sound_3_30_">
	</g>
	<g id="sound_3_29_">
	</g>
	<g id="sound_3_28_">
	</g>
	<g id="sound_3_27_">
	</g>
	<g id="sound_3_26_">
	</g>
	<g id="sound_3_25_">
	</g>
	<g id="sound_3_24_">
	</g>
	<g id="sound_3_23_">
	</g>
	<g id="sound_3_22_">
	</g>
	<g id="sound_3_21_">
	</g>
	<g id="sound_3_20_">
	</g>
	<g id="sound_3_19_">
	</g>
	<g id="sound_3_18_">
	</g>
	<g id="sound_3_17_">
	</g>
	<g id="sound_3_16_">
	</g>
	<g id="sound_3_15_">
	</g>
	<g id="sound_3_14_">
	</g>
	<g id="sound_3_13_">
	</g>
	<g id="sound_3_12_">
	</g>
	<g id="sound_3_11_">
	</g>
	<g id="sound_3_10_">
	</g>
	<g id="sound_3_9_">
	</g>
	<g id="sound_3_8_">
	</g>
	<g id="sound_3_7_">
	</g>
	<g id="sound_3_6_">
	</g>
	<g id="sound_3_5_">
	</g>
	<g id="sound_3_4_">
	</g>
	<g id="sound_3_3_">
	</g>
	<g id="sound_3_2_">
	</g>
	<g id="sound_3_1_">
	</g>
	<g id="sound_3">
	</g>
</g>
<g id="carpet_plot">
</g>
<g id="Ebene_37">
</g>
<g id="legende" display="none">
</g>
<g id="Ebene_39">
</g>
<g id="UI_design_light">
</g>
<g id="UI_design">
</g>
<g id="UI_overview">
</g>
<g id="UI_login">
</g>
<g id="UI_project_edit">
</g>
<g id="notes" display="none">
</g>
<g id="icons">
</g>
<g id="colors">
	<g>
		<path fill="#FFFFFF" d="M45.101,25.021C40.336,19.53,33.751,13.219,25,13.219c-3.534,0-6.775,1-10.193,3.136
			c-2.882,1.809-5.837,4.354-9.897,8.54L4.803,25l0.706,0.726C11.305,31.658,16.312,36.781,25,36.781
			c3.838,0,7.563-1.252,11.38-3.829c3.252-2.198,6.018-4.985,8.237-7.236l0.58-0.578L45.101,25.021z M25,33.415
			c-4.638,0-8.415-3.776-8.415-8.415s3.777-8.414,8.415-8.414s8.416,3.775,8.416,8.414S29.638,33.415,25,33.415z"/>
		<path fill="#FFFFFF" d="M24.411,21.929c0-0.726,0.21-1.41,0.578-1.977c-2.787,0-5.038,2.271-5.038,5.069
			c0,2.797,2.26,5.06,5.038,5.06c2.777,0,5.05-2.263,5.05-5.06l0,0c-0.569,0.368-1.253,0.579-1.979,0.579
			C26.053,25.589,24.411,23.948,24.411,21.929z"/>
	</g>
</g>
</svg>
