<?xml version="1.0" encoding="utf-8"?>
<!-- Generator: Adobe Illustrator 16.0.0, SVG Export Plug-In . SVG Version: 6.00 Build 0)  -->
<!DOCTYPE svg PUBLIC "-//W3C//DTD SVG 1.1//EN" "http://www.w3.org/Graphics/SVG/1.1/DTD/svg11.dtd">
<svg version="1.1" xmlns="http://www.w3.org/2000/svg" xmlns:xlink="http://www.w3.org/1999/xlink" x="0px" y="0px" width="50px"
	 height="50px" viewBox="0 0 50 50" enable-background="new 0 0 50 50" xml:space="preserve">
<g id="explore">
</g>
<g id="rate_ultimte">
</g>
<g id="Ebene_41">
</g>
<g id="rate">
	<g id="sound_3_32_">
	</g>
	<g id="sound_3_31_">
	</g>
	<g id="sound_3_30_">
	</g>
	<g id="sound_3_29_">
	</g>
	<g id="sound_3_28_">
	</g>
	<g id="sound_3_27_">
	</g>
	<g id="sound_3_26_">
	</g>
	<g id="sound_3_25_">
	</g>
	<g id="sound_3_24_">
	</g>
	<g id="sound_3_23_">
	</g>
	<g id="sound_3_22_">
	</g>
	<g id="sound_3_21_">
	</g>
	<g id="sound_3_20_">
	</g>
	<g id="sound_3_19_">
	</g>
	<g id="sound_3_18_">
	</g>
	<g id="sound_3_17_">
	</g>
	<g id="sound_3_16_">
	</g>
	<g id="sound_3_15_">
	</g>
	<g id="sound_3_14_">
	</g>
	<g id="sound_3_13_">
	</g>
	<g id="sound_3_12_">
	</g>
	<g id="sound_3_11_">
	</g>
	<g id="sound_3_10_">
	</g>
	<g id="sound_3_9_">
	</g>
	<g id="sound_3_8_">
	</g>
	<g id="sound_3_7_">
	</g>
	<g id="sound_3_6_">
	</g>
	<g id="sound_3_5_">
	</g>
	<g id="sound_3_4_">
	</g>
	<g id="sound_3_3_">
	</g>
	<g id="sound_3_2_">
	</g>
	<g id="sound_3_1_">
	</g>
	<g id="sound_3">
	</g>
</g>
<g id="carpet_plot">
</g>
<g id="Ebene_37">
</g>
<g id="legende" display="none">
</g>
<g id="Ebene_39">
</g>
<g id="UI_design_light">
</g>
<g id="UI_design">
</g>
<g id="UI_overview">
</g>
<g id="UI_login">
</g>
<g id="UI_project_edit">
</g>
<g id="notes" display="none">
</g>
<g id="icons">
</g>
<g id="colors">
	<g>
		<g id="_x32__audio_simple_repeat_2_4_">
			<g>
				<g>
					<g>
						<path fill="#FFFFFF" d="M42.165,32.175l-2.163-1.072l0.424-1.354c0.526-1.686,0.794-3.391,0.794-5.067
							c0-8.815-6.74-16.173-15.339-17.132v2.768c7.078,0.947,12.594,7.077,12.594,14.364c0,1.037-0.122,2.078-0.375,3.185
							l-0.468,2.057l-3.973-1.971l2.143,6.367L42.165,32.175z"/>
					</g>
				</g>
				<g>
					<g>
						<path fill="#FFFFFF" d="M8.781,25.318c0,8.813,6.74,16.171,15.339,17.132v-2.767c-7.078-0.947-12.594-7.078-12.594-14.365
							c0-1.038,0.122-2.08,0.374-3.188l0.468-2.058l3.973,1.973l-2.143-6.366l-6.363,2.144l2.163,1.072l-0.423,1.354
							C9.049,21.937,8.781,23.643,8.781,25.318z"/>
					</g>
				</g>
			</g>
		</g>
		<g>
			<g>
				<g>
					<path fill="#FFFFFF" d="M17.573,32.906l0.114-0.507c0.234-0.041,0.407-0.094,0.518-0.155c0.11-0.063,0.214-0.159,0.311-0.29
						s0.191-0.333,0.285-0.605c0.093-0.272,0.202-0.686,0.326-1.238l1.895-8.543c0.042-0.2,0.08-0.433,0.114-0.699
						c0.034-0.266,0.052-0.495,0.052-0.688c0-0.311-0.072-0.531-0.218-0.663c-0.145-0.131-0.41-0.21-0.797-0.237l0.113-0.508h5.085
						c0.904,0,1.665,0.035,2.283,0.104c0.618,0.069,1.143,0.173,1.574,0.311c0.432,0.139,0.854,0.338,1.269,0.601
						c0.311,0.187,0.605,0.432,0.886,0.735c0.279,0.304,0.516,0.639,0.709,1.005c0.193,0.365,0.343,0.765,0.45,1.196
						s0.161,0.874,0.161,1.33c0,1.201-0.209,2.348-0.627,3.438s-1.027,2.067-1.827,2.93c-0.802,0.863-1.729,1.493-2.781,1.891
						c-1.053,0.396-2.328,0.595-3.826,0.595H17.573z M19.852,31.995h1.74l2.702-12.313h-1.719L19.852,31.995z M25.392,19.827
						l-2.63,12.013h0.466c0.621,0,1.12-0.067,1.496-0.202s0.737-0.343,1.082-0.626c0.221-0.187,0.452-0.411,0.694-0.673
						c0.38-0.415,0.714-0.922,1.004-1.522c0.339-0.697,0.603-1.481,0.793-2.351c0.189-0.87,0.284-1.768,0.284-2.692
						c0-2.631-0.9-3.946-2.702-3.946H25.392z M28.095,19.683l-0.041,0.124c0.621,0.477,1.067,1.059,1.341,1.745
						c0.272,0.688,0.408,1.507,0.408,2.46c0,0.718-0.059,1.401-0.176,2.05c-0.117,0.649-0.283,1.257-0.497,1.823
						c-0.214,0.565-0.457,1.066-0.729,1.501c-0.273,0.435-0.553,0.81-0.839,1.123c-0.287,0.314-0.563,0.582-0.829,0.803
						c-0.266,0.222-0.55,0.414-0.854,0.58l0.03,0.146c0.746-0.187,1.381-0.44,1.905-0.762c0.525-0.32,1.009-0.718,1.45-1.19
						c0.441-0.474,0.835-1.023,1.181-1.652c0.345-0.628,0.61-1.314,0.797-2.061c0.187-0.745,0.28-1.519,0.28-2.319
						c0-1.16-0.299-2.123-0.896-2.889C30.029,20.397,29.186,19.903,28.095,19.683z"/>
				</g>
			</g>
		</g>
	</g>
</g>
</svg>
