<?xml version="1.0" encoding="utf-8"?>
<!-- Generator: Adobe Illustrator 16.0.3, SVG Export Plug-In . SVG Version: 6.00 Build 0)  -->
<!DOCTYPE svg PUBLIC "-//W3C//DTD SVG 1.1//EN" "http://www.w3.org/Graphics/SVG/1.1/DTD/svg11.dtd">
<svg version="1.1" xmlns="http://www.w3.org/2000/svg" xmlns:xlink="http://www.w3.org/1999/xlink" x="0px" y="0px" width="50px"
	 height="50px" viewBox="0 0 50 50" enable-background="new 0 0 50 50" xml:space="preserve">
<g id="explore">
</g>
<g id="rate_ultimte">
</g>
<g id="Ebene_41">
</g>
<g id="rate">
	<g id="sound_3_32_">
	</g>
	<g id="sound_3_31_">
	</g>
	<g id="sound_3_30_">
	</g>
	<g id="sound_3_29_">
	</g>
	<g id="sound_3_28_">
	</g>
	<g id="sound_3_27_">
	</g>
	<g id="sound_3_26_">
	</g>
	<g id="sound_3_25_">
	</g>
	<g id="sound_3_24_">
	</g>
	<g id="sound_3_23_">
	</g>
	<g id="sound_3_22_">
	</g>
	<g id="sound_3_21_">
	</g>
	<g id="sound_3_20_">
	</g>
	<g id="sound_3_19_">
	</g>
	<g id="sound_3_18_">
	</g>
	<g id="sound_3_17_">
	</g>
	<g id="sound_3_16_">
	</g>
	<g id="sound_3_15_">
	</g>
	<g id="sound_3_14_">
	</g>
	<g id="sound_3_13_">
	</g>
	<g id="sound_3_12_">
	</g>
	<g id="sound_3_11_">
	</g>
	<g id="sound_3_10_">
	</g>
	<g id="sound_3_9_">
	</g>
	<g id="sound_3_8_">
	</g>
	<g id="sound_3_7_">
	</g>
	<g id="sound_3_6_">
	</g>
	<g id="sound_3_5_">
	</g>
	<g id="sound_3_4_">
	</g>
	<g id="sound_3_3_">
	</g>
	<g id="sound_3_2_">
	</g>
	<g id="sound_3_1_">
	</g>
	<g id="sound_3">
	</g>
</g>
<g id="carpet_plot">
</g>
<g id="Ebene_37">
</g>
<g id="legende" display="none">
</g>
<g id="Ebene_39">
</g>
<g id="UI_design_light">
</g>
<g id="UI_design">
</g>
<g id="UI_overview">
</g>
<g id="UI_login">
</g>
<g id="UI_project_edit">
</g>
<g id="notes" display="none">
</g>
<g id="icons">
</g>
<g id="colors">
	<g>
		<path fill="#FFFFFF" d="M5.508,35.486v-0.783c1.856-0.174,2.118-0.377,2.118-2.35V18.488c0-2.002-0.174-2.06-2.031-2.233v-0.726
			c1.566-0.174,3.452-0.638,4.525-1.016v17.84c0,2.001,0.232,2.204,2.146,2.35v0.783H5.508z"/>
		<path fill="#FFFFFF" d="M13.601,35.486v-0.783c1.856-0.174,2.088-0.349,2.088-2.379v-6.033c0-1.827-0.116-1.973-1.827-2.233
			v-0.726c1.508-0.231,2.987-0.638,4.293-1.16v10.152c0,2.002,0.203,2.205,2.117,2.379v0.783H13.601z M15.167,18.169
			c0-0.899,0.754-1.596,1.595-1.596c0.87,0,1.538,0.696,1.538,1.596c0,0.841-0.667,1.566-1.566,1.566
			C15.921,19.735,15.167,19.01,15.167,18.169z"/>
		<path fill="#FFFFFF" d="M38.082,35.486v-0.755c1.683-0.174,2.031-0.348,2.031-2.437v-4.844c0-2.146-0.813-3.394-2.582-3.394
			c-1.016,0-2.118,0.551-3.22,1.479c0.058,0.348,0.087,0.695,0.087,1.276v5.656c0,1.885,0.261,2.088,1.885,2.262v0.755h-6.439
			v-0.755c1.798-0.174,2.088-0.377,2.088-2.291v-5.019c0-2.204-0.841-3.394-2.582-3.394c-1.131,0-2.292,0.783-3.162,1.509v6.903
			c0,1.914,0.261,2.117,1.682,2.291v0.755h-6.353v-0.755c1.915-0.174,2.205-0.377,2.205-2.32v-6.063c0-1.885-0.116-2.03-1.798-2.291
			v-0.696c1.305-0.232,2.872-0.609,4.264-1.219v2.408c0.609-0.436,1.247-0.929,2.146-1.479c0.783-0.493,1.508-0.842,2.408-0.842
			c1.45,0,2.755,0.929,3.335,2.437c0.87-0.638,1.711-1.188,2.437-1.624c0.638-0.435,1.421-0.813,2.263-0.813
			c2.292,0,3.8,1.654,3.8,4.584v5.627c0,1.973,0.203,2.089,1.915,2.291v0.755H38.082z"/>
	</g>
</g>
</svg>
