<?xml version="1.0" encoding="utf-8"?>
<!-- Generator: Adobe Illustrator 16.0.0, SVG Export Plug-In . SVG Version: 6.00 Build 0)  -->
<!DOCTYPE svg PUBLIC "-//W3C//DTD SVG 1.1//EN" "http://www.w3.org/Graphics/SVG/1.1/DTD/svg11.dtd">
<svg version="1.1" xmlns="http://www.w3.org/2000/svg" xmlns:xlink="http://www.w3.org/1999/xlink" x="0px" y="0px" width="50px"
	 height="50px" viewBox="0 0 50 50" enable-background="new 0 0 50 50" xml:space="preserve">
<g id="explore">
</g>
<g id="rate_ultimte">
</g>
<g id="Ebene_41">
</g>
<g id="rate">
	<g id="sound_3_32_">
	</g>
	<g id="sound_3_31_">
	</g>
	<g id="sound_3_30_">
	</g>
	<g id="sound_3_29_">
	</g>
	<g id="sound_3_28_">
	</g>
	<g id="sound_3_27_">
	</g>
	<g id="sound_3_26_">
	</g>
	<g id="sound_3_25_">
	</g>
	<g id="sound_3_24_">
	</g>
	<g id="sound_3_23_">
	</g>
	<g id="sound_3_22_">
	</g>
	<g id="sound_3_21_">
	</g>
	<g id="sound_3_20_">
	</g>
	<g id="sound_3_19_">
	</g>
	<g id="sound_3_18_">
	</g>
	<g id="sound_3_17_">
	</g>
	<g id="sound_3_16_">
	</g>
	<g id="sound_3_15_">
	</g>
	<g id="sound_3_14_">
	</g>
	<g id="sound_3_13_">
	</g>
	<g id="sound_3_12_">
	</g>
	<g id="sound_3_11_">
	</g>
	<g id="sound_3_10_">
	</g>
	<g id="sound_3_9_">
	</g>
	<g id="sound_3_8_">
	</g>
	<g id="sound_3_7_">
	</g>
	<g id="sound_3_6_">
	</g>
	<g id="sound_3_5_">
	</g>
	<g id="sound_3_4_">
	</g>
	<g id="sound_3_3_">
	</g>
	<g id="sound_3_2_">
	</g>
	<g id="sound_3_1_">
	</g>
	<g id="sound_3">
	</g>
</g>
<g id="carpet_plot">
</g>
<g id="Ebene_37">
</g>
<g id="legende" display="none">
</g>
<g id="Ebene_39">
</g>
<g id="UI_design_light">
</g>
<g id="UI_design">
</g>
<g id="UI_overview">
</g>
<g id="UI_login">
</g>
<g id="UI_project_edit">
</g>
<g id="notes" display="none">
</g>
<g id="icons">
</g>
<g id="colors">
	<g>
		<path fill="#FFFFFF" d="M27.208,38.683c-0.576,0.609-1.314,0.915-2.209,0.915c-0.896,0-1.632-0.306-2.207-0.915
			c-0.578-0.608-0.865-1.327-0.865-2.159v-8.452h-8.452c-0.898,0-1.632-0.303-2.207-0.911c-0.578-0.608-0.865-1.331-0.865-2.16
			c0-0.898,0.287-1.633,0.865-2.212c0.575-0.573,1.309-0.863,2.207-0.863l8.452-0.001v-8.446c0-0.9,0.287-1.634,0.864-2.211
			c0.575-0.574,1.313-0.864,2.207-0.864c0.895,0,1.634,0.29,2.209,0.864c0.577,0.577,0.865,1.312,0.865,2.21v8.448h8.45
			c0.896,0,1.633,0.29,2.21,0.863c0.575,0.579,0.863,1.313,0.863,2.212c0,0.829-0.289,1.552-0.863,2.16
			c-0.578,0.608-1.315,0.911-2.21,0.911h-8.449v8.452C28.073,37.355,27.784,38.074,27.208,38.683z"/>
	</g>
	<g>
		<g>
			<path fill-rule="evenodd" clip-rule="evenodd" fill="#FFFFFF" d="M24.959,4.765c-0.564,0.031-1.145,0.056-1.725,0.097
				c-0.292,0.021-0.581,0.069-0.871,0.11c-0.57,0.081-0.947,0.416-1.163,0.931c-0.085,0.204-0.122,0.429-0.118,0.656
				c0.005,0.347-0.007,0.693,0.002,1.04c0.009,0.33-0.077,0.623-0.244,0.91c-0.173,0.298-0.396,0.542-0.687,0.714
				c-0.204,0.121-0.432,0.203-0.652,0.295c-0.373,0.157-0.747,0.308-1.12,0.464c-0.299,0.125-0.596,0.253-0.895,0.379
				c-0.098,0.042-0.196,0.084-0.296,0.12c-0.39,0.141-0.78,0.104-1.177,0.016c-0.362-0.081-0.63-0.289-0.879-0.547
				c-0.243-0.253-0.492-0.503-0.753-0.737c-0.355-0.317-0.774-0.431-1.246-0.334c-0.297,0.061-0.538,0.212-0.75,0.428
				c-0.854,0.871-1.711,1.737-2.565,2.606c-0.277,0.281-0.554,0.56-0.825,0.846c-0.273,0.29-0.353,0.647-0.328,1.034
				c0.026,0.417,0.234,0.738,0.529,1.021c0.302,0.291,0.589,0.598,0.88,0.901c0.047,0.048,0.082,0.111,0.114,0.171
				c0.237,0.44,0.271,0.914,0.206,1.396c-0.016,0.124-0.083,0.24-0.13,0.359c-0.126,0.316-0.252,0.631-0.38,0.947
				c-0.15,0.374-0.304,0.748-0.455,1.122c-0.076,0.187-0.147,0.376-0.229,0.56c-0.154,0.347-0.41,0.603-0.731,0.797
				c-0.095,0.058-0.192,0.115-0.294,0.16C7.955,21.322,7.72,21.36,7.477,21.36c-0.357,0-0.714,0.004-1.072,0.004
				c-0.458,0-0.839,0.177-1.139,0.519c-0.178,0.203-0.296,0.437-0.339,0.709c-0.163,1.037-0.167,2.082-0.147,3.127
				c0.01,0.539,0.059,1.075,0.136,1.608c0.009,0.063,0.016,0.127,0.02,0.19c0.045,0.622,0.351,1.071,0.91,1.34
				c0.146,0.07,0.305,0.124,0.476,0.121c0.411-0.006,0.822-0.004,1.232-0.003c0.524,0.003,0.965,0.197,1.351,0.555
				c0.268,0.249,0.419,0.556,0.553,0.882c0.184,0.447,0.378,0.89,0.566,1.335c0.147,0.347,0.301,0.691,0.437,1.044
				c0.164,0.424,0.129,0.85-0.001,1.282c-0.109,0.358-0.347,0.614-0.599,0.867c-0.21,0.211-0.419,0.424-0.627,0.637
				c-0.334,0.342-0.433,0.756-0.375,1.221c0.037,0.298,0.173,0.543,0.384,0.751c0.588,0.579,1.177,1.157,1.766,1.736
				c0.572,0.563,1.144,1.127,1.716,1.691c0.227,0.224,0.506,0.329,0.817,0.354c0.485,0.04,0.881-0.146,1.216-0.488
				c0.242-0.247,0.489-0.489,0.73-0.738c0.221-0.227,0.489-0.361,0.789-0.457c0.235-0.076,0.471-0.102,0.709-0.083
				c0.168,0.013,0.337,0.056,0.496,0.114c0.319,0.115,0.633,0.249,0.947,0.377c0.32,0.13,0.64,0.259,0.96,0.392
				c0.225,0.093,0.444,0.205,0.675,0.283c0.295,0.101,0.508,0.298,0.718,0.513c0.115,0.118,0.176,0.264,0.26,0.398
				c0.166,0.262,0.211,0.552,0.21,0.854c-0.001,0.335-0.006,0.671,0.006,1.007c0.007,0.18,0.022,0.366,0.076,0.537
				c0.125,0.389,0.371,0.69,0.741,0.877c0.246,0.124,0.508,0.177,0.784,0.191c0.409,0.021,0.817,0.075,1.227,0.1
				c0.367,0.021,0.735,0.034,1.102,0.025c0.501-0.012,1.002-0.039,1.501-0.077c0.345-0.026,0.689-0.071,1.03-0.129
				c0.369-0.063,0.647-0.28,0.873-0.571c0.211-0.273,0.294-0.587,0.294-0.926c0-0.272-0.005-0.544-0.002-0.816
				c0.003-0.208,0.008-0.416,0.029-0.623c0.012-0.115,0.047-0.231,0.094-0.336c0.132-0.3,0.321-0.56,0.563-0.783
				c0.137-0.124,0.292-0.213,0.46-0.284c0.357-0.151,0.717-0.295,1.076-0.446c0.333-0.139,0.665-0.281,0.998-0.421
				c0.211-0.088,0.418-0.188,0.635-0.256c0.16-0.049,0.325-0.099,0.502-0.072c0.146,0.022,0.299,0.012,0.444,0.041
				c0.355,0.07,0.678,0.21,0.938,0.477c0.282,0.289,0.566,0.578,0.867,0.848c0.412,0.37,0.896,0.475,1.427,0.307
				c0.194-0.062,0.363-0.175,0.508-0.32c0.946-0.951,1.892-1.902,2.84-2.853c0.195-0.196,0.396-0.386,0.588-0.586
				c0.336-0.349,0.467-0.759,0.369-1.244c-0.069-0.345-0.252-0.612-0.497-0.853c-0.311-0.307-0.613-0.622-0.909-0.942
				c-0.073-0.079-0.119-0.187-0.162-0.289c-0.136-0.318-0.177-0.653-0.166-0.999c0.006-0.171,0.064-0.324,0.125-0.477
				c0.149-0.375,0.313-0.745,0.466-1.118c0.152-0.368,0.295-0.74,0.449-1.107c0.093-0.221,0.176-0.449,0.301-0.649
				c0.216-0.346,0.532-0.587,0.903-0.759c0.153-0.071,0.312-0.112,0.476-0.121c0.335-0.016,0.672-0.022,1.007-0.033
				c0.175-0.006,0.352-0.017,0.527-0.019c0.198-0.002,0.378-0.065,0.543-0.165c0.433-0.262,0.713-0.626,0.759-1.15
				c0.042-0.461,0.111-0.921,0.144-1.382c0.029-0.409,0.02-0.82,0.035-1.23c0.025-0.701-0.087-1.393-0.133-2.09
				c-0.012-0.189-0.053-0.381-0.112-0.562c-0.151-0.457-0.461-0.764-0.916-0.933c-0.175-0.065-0.354-0.074-0.533-0.077
				c-0.352-0.005-0.704,0.001-1.056,0.001c-0.528,0-0.963-0.21-1.352-0.558c-0.236-0.211-0.372-0.475-0.488-0.755
				c-0.165-0.392-0.324-0.787-0.484-1.18c-0.204-0.497-0.408-0.994-0.61-1.49c-0.02-0.049-0.041-0.102-0.042-0.153
				c-0.004-0.24-0.036-0.486,0.008-0.717c0.074-0.389,0.224-0.75,0.529-1.032c0.262-0.242,0.502-0.505,0.753-0.758
				c0.446-0.451,0.516-0.987,0.327-1.564c-0.049-0.15-0.159-0.292-0.272-0.407c-0.681-0.69-1.371-1.371-2.057-2.055
				c-0.456-0.454-0.914-0.907-1.367-1.365c-0.188-0.19-0.404-0.34-0.663-0.393c-0.329-0.068-0.656-0.049-0.966,0.109
				c-0.257,0.131-0.445,0.342-0.646,0.54c-0.208,0.206-0.42,0.408-0.624,0.618c-0.225,0.232-0.514,0.346-0.816,0.408
				c-0.301,0.062-0.616,0.083-0.919,0.002c-0.179-0.047-0.347-0.132-0.52-0.202c-0.393-0.159-0.788-0.319-1.181-0.48
				c-0.393-0.163-0.782-0.333-1.178-0.488c-0.367-0.144-0.644-0.397-0.854-0.714c-0.204-0.307-0.342-0.646-0.327-1.033
				c0.013-0.357,0.005-0.714,0.001-1.072c-0.004-0.454-0.168-0.842-0.501-1.152c-0.176-0.165-0.389-0.271-0.624-0.338
				c-0.307-0.087-0.623-0.09-0.933-0.119C26.107,4.806,25.541,4.794,24.959,4.765z M35.664,24.997
				c0.002,1.287-0.233,2.529-0.672,3.735c-0.265,0.728-0.628,1.407-1.037,2.061c-0.397,0.638-0.876,1.22-1.408,1.75
				c-0.711,0.708-1.507,1.313-2.388,1.8c-0.914,0.504-1.881,0.864-2.898,1.097c-0.747,0.171-1.508,0.2-2.268,0.25
				c-2.907-0.056-5.44-1.054-7.505-3.104c-2.098-2.083-3.15-4.642-3.168-7.602c-0.01-1.653,0.371-3.229,1.11-4.711
				c0.517-1.036,1.178-1.975,1.999-2.791c1.221-1.216,2.653-2.103,4.295-2.638c1.055-0.344,2.146-0.526,3.251-0.51
				c3.221,0.045,5.934,1.256,8.063,3.683C34.784,20.005,35.629,22.354,35.664,24.997z"/>
		</g>
	</g>
</g>
</svg>
