<?xml version="1.0" encoding="utf-8"?>
<!-- Generator: Adobe Illustrator 16.0.3, SVG Export Plug-In . SVG Version: 6.00 Build 0)  -->
<!DOCTYPE svg PUBLIC "-//W3C//DTD SVG 1.1//EN" "http://www.w3.org/Graphics/SVG/1.1/DTD/svg11.dtd">
<svg version="1.1" xmlns="http://www.w3.org/2000/svg" xmlns:xlink="http://www.w3.org/1999/xlink" x="0px" y="0px" width="50px"
	 height="50px" viewBox="0 0 50 50" enable-background="new 0 0 50 50" xml:space="preserve">
<g id="explore">
</g>
<g id="rate_ultimte">
</g>
<g id="Ebene_41">
</g>
<g id="rate">
	<g id="sound_3_32_">
	</g>
	<g id="sound_3_31_">
	</g>
	<g id="sound_3_30_">
	</g>
	<g id="sound_3_29_">
	</g>
	<g id="sound_3_28_">
	</g>
	<g id="sound_3_27_">
	</g>
	<g id="sound_3_26_">
	</g>
	<g id="sound_3_25_">
	</g>
	<g id="sound_3_24_">
	</g>
	<g id="sound_3_23_">
	</g>
	<g id="sound_3_22_">
	</g>
	<g id="sound_3_21_">
	</g>
	<g id="sound_3_20_">
	</g>
	<g id="sound_3_19_">
	</g>
	<g id="sound_3_18_">
	</g>
	<g id="sound_3_17_">
	</g>
	<g id="sound_3_16_">
	</g>
	<g id="sound_3_15_">
	</g>
	<g id="sound_3_14_">
	</g>
	<g id="sound_3_13_">
	</g>
	<g id="sound_3_12_">
	</g>
	<g id="sound_3_11_">
	</g>
	<g id="sound_3_10_">
	</g>
	<g id="sound_3_9_">
	</g>
	<g id="sound_3_8_">
	</g>
	<g id="sound_3_7_">
	</g>
	<g id="sound_3_6_">
	</g>
	<g id="sound_3_5_">
	</g>
	<g id="sound_3_4_">
	</g>
	<g id="sound_3_3_">
	</g>
	<g id="sound_3_2_">
	</g>
	<g id="sound_3_1_">
	</g>
	<g id="sound_3">
	</g>
</g>
<g id="carpet_plot">
</g>
<g id="Ebene_37">
</g>
<g id="legende" display="none">
</g>
<g id="Ebene_39">
</g>
<g id="UI_design_light">
</g>
<g id="UI_design">
</g>
<g id="UI_overview">
</g>
<g id="UI_login">
</g>
<g id="UI_project_edit">
</g>
<g id="notes" display="none">
</g>
<g id="icons">
</g>
<g id="colors">
	<g>
		<path fill="#FFFFFF" d="M16.875,20.796v-0.537h0.761v1.506c1.101,1.564,2.523,4.126,3.827,6.619h7.082
			c1.301-2.486,2.72-5.041,3.817-6.606v-1.519h0.763V20.8c0.311-0.342,0.573-0.542,0.763-0.542H16.112
			C16.303,20.258,16.565,20.457,16.875,20.796z"/>
		<path fill="#FFFFFF" d="M12.188,21.693c-1.325,1.117-2.169,2.788-2.169,4.658c0-1.683,0.684-3.207,1.785-4.309
			C11.926,21.92,12.056,21.805,12.188,21.693z"/>
		<path fill="#FFFFFF" d="M27.369,30.67h-4.731c1.353,2.678,2.363,4.821,2.363,4.821S26.014,33.348,27.369,30.67z"/>
		<path fill="#FFFFFF" d="M21.191,5.914l-3.427,5.836c0,0.001,0,0.001,0,0.002c0,3.996,3.239,7.236,7.235,7.236
			c3.997,0,7.235-3.24,7.235-7.236l-3.43-5.838H21.191z"/>
		<path fill="#E6E6E6" d="M17.636,38.286h14.727h0.002V30.67h-4.995c-1.355,2.678-2.368,4.821-2.368,4.821s-1.011-2.143-2.363-4.821
			h-5.002V38.286z"/>
		<path fill="#E6E6E6" d="M16.875,38.286v-17.49c-0.31-0.339-0.572-0.538-0.763-0.538c-1.513,0-2.866,0.541-3.925,1.436
			c-0.132,0.111-0.262,0.227-0.384,0.35c-1.102,1.102-1.785,2.626-1.785,4.309l1.522,11.935H16.875z"/>
		<path fill="#E6E6E6" d="M33.125,20.8v17.486h5.332l-1.015,7.958l0,0l1.017-7.958l1.522-11.935c0-1.683-0.681-3.206-1.784-4.309
			c-1.103-1.104-2.621-1.785-4.31-1.785C33.698,20.258,33.436,20.458,33.125,20.8z"/>
		<path fill="#E6E6E6" d="M32.362,28.384v-6.606c-1.098,1.566-2.517,4.12-3.817,6.606H32.362z"/>
		<path fill="#E6E6E6" d="M17.636,28.384h3.827c-1.304-2.493-2.727-5.055-3.827-6.619V28.384z"/>
		<path d="M37.442,46.244l1.015-7.958h-5.332V20.8v-0.542h-0.763v1.519v6.606h-3.817h-7.082h-3.827v-6.619v-1.506h-0.761v0.537
			v17.49h-5.334l1.016,7.958H37.442z M22.638,30.67h4.731h4.995v7.616h-0.002H17.636V30.67H22.638z"/>
		<path d="M17.765,11.75l3.427-5.836h7.614l3.43,5.838c0,0,0.197-7.996-7.236-7.996c-7.433,0-7.235,7.996-7.235,7.996L17.765,11.75z
			"/>
	</g>
</g>
</svg>
