<?xml version="1.0" encoding="utf-8"?>
<!-- Generator: Adobe Illustrator 16.0.0, SVG Export Plug-In . SVG Version: 6.00 Build 0)  -->
<!DOCTYPE svg PUBLIC "-//W3C//DTD SVG 1.1//EN" "http://www.w3.org/Graphics/SVG/1.1/DTD/svg11.dtd">
<svg version="1.1" xmlns="http://www.w3.org/2000/svg" xmlns:xlink="http://www.w3.org/1999/xlink" x="0px" y="0px" width="50px"
	 height="50px" viewBox="0 0 50 50" enable-background="new 0 0 50 50" xml:space="preserve">
<g id="explore">
</g>
<g id="rate_ultimte">
</g>
<g id="Ebene_41">
</g>
<g id="rate">
	<g id="sound_3_32_">
	</g>
	<g id="sound_3_31_">
	</g>
	<g id="sound_3_30_">
	</g>
	<g id="sound_3_29_">
	</g>
	<g id="sound_3_28_">
	</g>
	<g id="sound_3_27_">
	</g>
	<g id="sound_3_26_">
	</g>
	<g id="sound_3_25_">
	</g>
	<g id="sound_3_24_">
	</g>
	<g id="sound_3_23_">
	</g>
	<g id="sound_3_22_">
	</g>
	<g id="sound_3_21_">
	</g>
	<g id="sound_3_20_">
	</g>
	<g id="sound_3_19_">
	</g>
	<g id="sound_3_18_">
	</g>
	<g id="sound_3_17_">
	</g>
	<g id="sound_3_16_">
	</g>
	<g id="sound_3_15_">
	</g>
	<g id="sound_3_14_">
	</g>
	<g id="sound_3_13_">
	</g>
	<g id="sound_3_12_">
	</g>
	<g id="sound_3_11_">
	</g>
	<g id="sound_3_10_">
	</g>
	<g id="sound_3_9_">
	</g>
	<g id="sound_3_8_">
	</g>
	<g id="sound_3_7_">
	</g>
	<g id="sound_3_6_">
	</g>
	<g id="sound_3_5_">
	</g>
	<g id="sound_3_4_">
	</g>
	<g id="sound_3_3_">
	</g>
	<g id="sound_3_2_">
	</g>
	<g id="sound_3_1_">
	</g>
	<g id="sound_3">
	</g>
</g>
<g id="carpet_plot">
</g>
<g id="Ebene_37">
</g>
<g id="legende" display="none">
</g>
<g id="Ebene_39">
</g>
<g id="UI_design_light">
</g>
<g id="UI_design">
</g>
<g id="UI_overview">
</g>
<g id="UI_login">
</g>
<g id="UI_project_edit">
</g>
<g id="notes" display="none">
</g>
<g id="icons">
</g>
<g id="colors">
	<g>
		<g>
			<g>
				<path fill="#FFFFFF" d="M24.556,40.5c-8.546,0-15.5-6.954-15.5-15.5c0-8.547,6.954-15.5,15.5-15.5c8.547,0,15.5,6.953,15.5,15.5
					C40.056,33.546,33.103,40.5,24.556,40.5z M24.556,10.825c-7.816,0-14.175,6.358-14.175,14.175s6.358,14.176,14.175,14.176
					c7.817,0,14.176-6.359,14.176-14.176S32.373,10.825,24.556,10.825z"/>
			</g>
			<g>
				<g>
					
						<rect x="23.693" y="13.959" transform="matrix(0.2306 0.9731 -0.9731 0.2306 43.1127 -4.4268)" fill="#FFFFFF" width="1.326" height="22.178"/>
				</g>
				<g>
					<g>
						<polygon fill="#FFFFFF" points="15.94,29.561 14.362,27.414 14.811,24.787 9.718,28.514 						"/>
					</g>
				</g>
				<g>
					<g>
						<polygon fill="#FFFFFF" points="33.901,25.308 34.351,22.682 32.771,20.534 38.993,21.582 						"/>
					</g>
				</g>
			</g>
		</g>
	</g>
</g>
</svg>
