<?xml version="1.0" encoding="utf-8"?>
<!-- Generator: Adobe Illustrator 16.0.0, SVG Export Plug-In . SVG Version: 6.00 Build 0)  -->
<!DOCTYPE svg PUBLIC "-//W3C//DTD SVG 1.1//EN" "http://www.w3.org/Graphics/SVG/1.1/DTD/svg11.dtd">
<svg version="1.1" xmlns="http://www.w3.org/2000/svg" xmlns:xlink="http://www.w3.org/1999/xlink" x="0px" y="0px" width="50px"
	 height="50px" viewBox="0 0 50 50" enable-background="new 0 0 50 50" xml:space="preserve">
<g id="explore">
</g>
<g id="rate_ultimte">
</g>
<g id="Ebene_41">
</g>
<g id="rate">
	<g id="sound_3_32_">
	</g>
	<g id="sound_3_31_">
	</g>
	<g id="sound_3_30_">
	</g>
	<g id="sound_3_29_">
	</g>
	<g id="sound_3_28_">
	</g>
	<g id="sound_3_27_">
	</g>
	<g id="sound_3_26_">
	</g>
	<g id="sound_3_25_">
	</g>
	<g id="sound_3_24_">
	</g>
	<g id="sound_3_23_">
	</g>
	<g id="sound_3_22_">
	</g>
	<g id="sound_3_21_">
	</g>
	<g id="sound_3_20_">
	</g>
	<g id="sound_3_19_">
	</g>
	<g id="sound_3_18_">
	</g>
	<g id="sound_3_17_">
	</g>
	<g id="sound_3_16_">
	</g>
	<g id="sound_3_15_">
	</g>
	<g id="sound_3_14_">
	</g>
	<g id="sound_3_13_">
	</g>
	<g id="sound_3_12_">
	</g>
	<g id="sound_3_11_">
	</g>
	<g id="sound_3_10_">
	</g>
	<g id="sound_3_9_">
	</g>
	<g id="sound_3_8_">
	</g>
	<g id="sound_3_7_">
	</g>
	<g id="sound_3_6_">
	</g>
	<g id="sound_3_5_">
	</g>
	<g id="sound_3_4_">
	</g>
	<g id="sound_3_3_">
	</g>
	<g id="sound_3_2_">
	</g>
	<g id="sound_3_1_">
	</g>
	<g id="sound_3">
	</g>
</g>
<g id="carpet_plot">
</g>
<g id="Ebene_37">
</g>
<g id="legende" display="none">
</g>
<g id="Ebene_39">
</g>
<g id="UI_design_light">
</g>
<g id="UI_design">
</g>
<g id="UI_overview">
</g>
<g id="UI_login">
</g>
<g id="UI_project_edit">
</g>
<g id="notes" display="none">
</g>
<g id="icons">
</g>
<g id="colors">
	<g>
		<path fill="#262626" d="M27.945,43.252c-0.768,0.813-1.752,1.221-2.947,1.221s-2.177-0.409-2.944-1.221
			c-0.771-0.813-1.153-1.771-1.153-2.881V29.097H9.626c-1.198,0-2.177-0.404-2.944-1.216C5.911,27.07,5.529,26.105,5.529,25
			c0-1.199,0.382-2.179,1.153-2.95c0.767-0.765,1.747-1.152,2.944-1.152l11.274,0V9.628c0-1.2,0.382-2.179,1.153-2.949
			c0.768-0.765,1.75-1.153,2.944-1.153c1.194,0,2.18,0.388,2.947,1.153c0.77,0.77,1.154,1.75,1.154,2.949v11.27h11.272
			c1.195,0,2.178,0.388,2.948,1.152c0.767,0.771,1.152,1.751,1.152,2.95c0,1.105-0.385,2.07-1.152,2.881
			c-0.771,0.812-1.754,1.216-2.948,1.216H29.1v11.274C29.099,41.481,28.714,42.44,27.945,43.252z"/>
	</g>
</g>
</svg>
