<?xml version="1.0" encoding="utf-8"?>
<!-- Generator: Adobe Illustrator 16.0.3, SVG Export Plug-In . SVG Version: 6.00 Build 0)  -->
<!DOCTYPE svg PUBLIC "-//W3C//DTD SVG 1.1//EN" "http://www.w3.org/Graphics/SVG/1.1/DTD/svg11.dtd">
<svg version="1.1" xmlns="http://www.w3.org/2000/svg" xmlns:xlink="http://www.w3.org/1999/xlink" x="0px" y="0px" width="50px"
	 height="50px" viewBox="0 0 50 50" enable-background="new 0 0 50 50" xml:space="preserve">
<g id="explore">
</g>
<g id="rate_ultimte">
</g>
<g id="Ebene_41">
</g>
<g id="rate">
	<g id="sound_3_32_">
	</g>
	<g id="sound_3_31_">
	</g>
	<g id="sound_3_30_">
	</g>
	<g id="sound_3_29_">
	</g>
	<g id="sound_3_28_">
	</g>
	<g id="sound_3_27_">
	</g>
	<g id="sound_3_26_">
	</g>
	<g id="sound_3_25_">
	</g>
	<g id="sound_3_24_">
	</g>
	<g id="sound_3_23_">
	</g>
	<g id="sound_3_22_">
	</g>
	<g id="sound_3_21_">
	</g>
	<g id="sound_3_20_">
	</g>
	<g id="sound_3_19_">
	</g>
	<g id="sound_3_18_">
	</g>
	<g id="sound_3_17_">
	</g>
	<g id="sound_3_16_">
	</g>
	<g id="sound_3_15_">
	</g>
	<g id="sound_3_14_">
	</g>
	<g id="sound_3_13_">
	</g>
	<g id="sound_3_12_">
	</g>
	<g id="sound_3_11_">
	</g>
	<g id="sound_3_10_">
	</g>
	<g id="sound_3_9_">
	</g>
	<g id="sound_3_8_">
	</g>
	<g id="sound_3_7_">
	</g>
	<g id="sound_3_6_">
	</g>
	<g id="sound_3_5_">
	</g>
	<g id="sound_3_4_">
	</g>
	<g id="sound_3_3_">
	</g>
	<g id="sound_3_2_">
	</g>
	<g id="sound_3_1_">
	</g>
	<g id="sound_3">
	</g>
</g>
<g id="carpet_plot">
</g>
<g id="Ebene_37">
</g>
<g id="legende" display="none">
</g>
<g id="Ebene_39">
</g>
<g id="UI_design_light">
</g>
<g id="UI_design">
</g>
<g id="UI_overview">
</g>
<g id="UI_login">
</g>
<g id="UI_project_edit">
</g>
<g id="notes" display="none">
</g>
<g id="icons">
</g>
<g id="colors">
	<g>
		<g>
			<path fill="#FFFFFF" d="M27.44,19.303v-0.348h0.492v0.976c0.713,1.013,1.634,2.671,2.479,4.286h4.586
				c0.843-1.61,1.761-3.264,2.472-4.278v-0.983h0.495v0.35c0.201-0.221,0.371-0.351,0.494-0.351H26.946
				C27.069,18.954,27.239,19.083,27.44,19.303z"/>
			<path fill="#FFFFFF" d="M24.404,19.885C23.546,20.608,23,21.689,23,22.901c0-1.09,0.442-2.077,1.156-2.791
				C24.235,20.031,24.319,19.957,24.404,19.885z"/>
			<path fill="#FFFFFF" d="M34.236,25.697h-3.064c0.876,1.735,1.531,3.122,1.531,3.122S33.358,27.432,34.236,25.697z"/>
			<path fill="#FFFFFF" d="M30.235,9.666l-2.219,3.779c0,0,0,0.001,0,0.001c0,2.587,2.098,4.685,4.685,4.685
				c2.588,0,4.686-2.098,4.686-4.685l-2.221-3.781H30.235z"/>
			<path fill="#E6E6E6" d="M27.933,30.63h9.537h0.001v-4.933h-3.235c-0.877,1.735-1.533,3.122-1.533,3.122s-0.655-1.387-1.531-3.122
				h-3.239V30.63z"/>
			<path fill="#E6E6E6" d="M27.44,30.63V19.303c-0.201-0.22-0.371-0.349-0.494-0.349c-0.979,0-1.856,0.351-2.542,0.931
				c-0.085,0.072-0.169,0.146-0.249,0.226C23.442,20.824,23,21.811,23,22.901l0.985,7.729H27.44z"/>
			<path fill="#E6E6E6" d="M37.964,19.305V30.63h3.453l-0.657,5.153l0,0l0.658-5.153l0.986-7.729c0-1.09-0.441-2.077-1.155-2.791
				c-0.714-0.715-1.698-1.157-2.791-1.157C38.335,18.954,38.165,19.084,37.964,19.305z"/>
			<path fill="#E6E6E6" d="M37.469,24.217v-4.278c-0.71,1.015-1.628,2.668-2.472,4.278H37.469z"/>
			<path fill="#E6E6E6" d="M27.933,24.217h2.479c-0.844-1.615-1.766-3.273-2.479-4.286V24.217z"/>
			<path d="M40.76,35.783l0.657-5.153h-3.453V19.305v-0.35h-0.495v0.983v4.278h-2.472h-4.586h-2.479v-4.286v-0.976H27.44v0.348
				V30.63h-3.455l0.658,5.153H40.76z M31.172,25.697h3.064h3.235v4.933h-0.001h-9.537v-4.933H31.172z"/>
			<path d="M28.017,13.445l2.219-3.779h4.931l2.221,3.781c0,0,0.127-5.179-4.686-5.179s-4.686,5.179-4.686,5.179L28.017,13.445z"/>
		</g>
		<g>
			<path fill="#FFFFFF" d="M11.518,15.931v-0.307h0.436v0.862c0.629,0.895,1.442,2.359,2.188,3.785h4.05
				c0.744-1.422,1.555-2.883,2.183-3.777v-0.87h0.437v0.31c0.177-0.195,0.327-0.31,0.436-0.31H11.082
				C11.19,15.624,11.34,15.737,11.518,15.931z"/>
			<path fill="#FFFFFF" d="M8.837,16.444c-0.758,0.639-1.241,1.594-1.241,2.665c0-0.963,0.39-1.834,1.021-2.464
				C8.687,16.574,8.761,16.508,8.837,16.444z"/>
			<path fill="#FFFFFF" d="M17.519,21.578h-2.705c0.773,1.531,1.352,2.757,1.352,2.757S16.744,23.109,17.519,21.578z"/>
			<path fill="#FFFFFF" d="M13.986,7.42l-1.96,3.337c0,0,0,0.001,0,0.001c0,2.285,1.853,4.138,4.138,4.138
				c2.287,0,4.138-1.853,4.138-4.138L18.34,7.42H13.986z"/>
			<path fill="#E6E6E6" d="M11.953,25.934h8.421h0.001v-4.355h-2.856c-0.775,1.531-1.354,2.757-1.354,2.757
				s-0.578-1.226-1.352-2.757h-2.86V25.934z"/>
			<path fill="#E6E6E6" d="M11.518,25.934V15.931c-0.177-0.193-0.327-0.307-0.436-0.307c-0.866,0-1.64,0.309-2.245,0.821
				c-0.076,0.063-0.15,0.13-0.219,0.2c-0.631,0.63-1.021,1.501-1.021,2.464l0.871,6.825H11.518z"/>
			<path fill="#E6E6E6" d="M20.811,15.934v10h3.048l-0.58,4.55l0,0l0.581-4.55l0.871-6.825c0-0.963-0.39-1.834-1.021-2.464
				c-0.63-0.631-1.498-1.021-2.464-1.021C21.138,15.624,20.988,15.738,20.811,15.934z"/>
			<path fill="#E6E6E6" d="M20.374,20.271v-3.777c-0.627,0.895-1.439,2.355-2.183,3.777H20.374z"/>
			<path fill="#E6E6E6" d="M11.953,20.271h2.188c-0.746-1.426-1.56-2.891-2.188-3.785V20.271z"/>
			<path d="M23.279,30.484l0.58-4.55h-3.048v-10v-0.31h-0.437v0.87v3.777h-2.183h-4.05h-2.188v-3.785v-0.862h-0.436v0.307v10.003
				H8.467l0.581,4.55H23.279z M14.813,21.578h2.705h2.856v4.355h-0.001h-8.421v-4.355H14.813z"/>
			<path d="M12.026,10.758l1.96-3.337h4.354l1.961,3.339c0,0,0.112-4.573-4.138-4.573c-4.251,0-4.138,4.573-4.138,4.573V10.758z"/>
		</g>
		<g>
			<path fill="#FFFFFF" d="M19.135,25.163v-0.394h0.559v1.104c0.806,1.146,1.849,3.023,2.804,4.851h5.191
				c0.954-1.822,1.993-3.694,2.798-4.841v-1.114h0.559v0.397c0.228-0.25,0.42-0.397,0.559-0.397H18.576
				C18.716,24.769,18.908,24.914,19.135,25.163z"/>
			<path fill="#FFFFFF" d="M15.699,25.821c-0.971,0.818-1.589,2.043-1.589,3.414c0-1.234,0.501-2.351,1.308-3.158
				C15.508,25.987,15.603,25.902,15.699,25.821z"/>
			<path fill="#FFFFFF" d="M26.826,32.399h-3.467c0.991,1.963,1.732,3.534,1.732,3.534S25.833,34.362,26.826,32.399z"/>
			<path fill="#FFFFFF" d="M22.299,14.256l-2.512,4.277c0,0.001,0,0.001,0,0.002c0,2.929,2.375,5.303,5.303,5.303
				c2.93,0,5.303-2.374,5.303-5.303l-2.514-4.279H22.299z"/>
			<path fill="#E6E6E6" d="M19.693,37.981h10.793h0.001v-5.582h-3.661c-0.993,1.963-1.735,3.534-1.735,3.534
				s-0.741-1.571-1.732-3.534h-3.666V37.981z"/>
			<path fill="#E6E6E6" d="M19.135,37.981V25.163c-0.227-0.249-0.419-0.395-0.559-0.395c-1.108,0-2.101,0.396-2.877,1.053
				c-0.096,0.081-0.191,0.166-0.281,0.256c-0.807,0.808-1.308,1.924-1.308,3.158l1.116,8.746H19.135z"/>
			<path fill="#E6E6E6" d="M31.045,25.166v12.815h3.908l-0.744,5.833l0,0l0.745-5.833l1.116-8.746c0-1.234-0.5-2.35-1.308-3.158
				c-0.808-0.809-1.922-1.309-3.159-1.309C31.465,24.769,31.272,24.916,31.045,25.166z"/>
			<path fill="#E6E6E6" d="M30.486,30.724v-4.841c-0.805,1.147-1.844,3.019-2.798,4.841H30.486z"/>
			<path fill="#E6E6E6" d="M19.693,30.724h2.804c-0.956-1.828-1.999-3.705-2.804-4.851V30.724z"/>
			<path d="M34.209,43.814l0.744-5.833h-3.908V25.166v-0.397h-0.559v1.114v4.841h-2.798h-5.191h-2.804v-4.851v-1.104h-0.559v0.394
				v12.818h-3.908l0.744,5.833H34.209z M23.359,32.399h3.467h3.661v5.582h-0.001H19.693v-5.582H23.359z"/>
			<path d="M19.787,18.533l2.512-4.277h5.581l2.514,4.279c0,0,0.144-5.861-5.303-5.861c-5.448,0-5.304,5.861-5.304,5.861
				L19.787,18.533z"/>
		</g>
	</g>
</g>
</svg>
